<svg width="230" height="230" viewBox="0 0 230 230" fill="none" xmlns="http://www.w3.org/2000/svg">
<g clip-path="url(#clip0)">
<circle cx="122.5" cy="159.5" r="72.5" fill="#E5F5ED"/>
<path d="M116.64 93.0547L104.822 93.7697L93.0032 93.0547C93.0032 93.0547 93.4966 105.846 89.0352 108.226C89.0352 108.226 94.7549 131.627 104.822 131.627C114.889 131.627 120.608 108.226 120.608 108.226C116.147 105.846 116.64 93.0547 116.64 93.0547Z" fill="#E8FAFF"/>
<path d="M100.109 112.702C100.044 106.482 99.737 99.5967 101.775 93.6124L93.0091 93.0977C93.0091 93.0977 93.5024 105.888 89.041 108.269C89.041 108.269 93.8099 127.867 102.361 131.148C100.245 125.071 100.159 117.149 100.109 112.702Z" fill="#006636"/>
<path d="M125.755 80.8721C125.284 78.8558 122.931 78.3125 121.966 77.8549C121.88 77.8191 121.773 77.8549 121.644 77.9407C122.488 72.2209 123.296 63.82 120.851 60.9315C117.483 56.9634 104.978 57.5568 104.978 57.5568H104.821C104.821 57.5568 92.3162 56.9634 88.9487 60.9315C86.4964 63.7914 87.3114 72.2066 88.1551 77.9407C88.0335 77.862 87.9191 77.8191 87.8334 77.8549C86.861 78.3125 84.5159 78.8558 84.044 80.8721C83.8224 81.823 84.1656 83.3959 84.5945 84.7973C84.913 85.9194 85.5714 86.9152 86.4793 87.6476C87.3871 88.38 88.4996 88.8129 89.6637 88.8869C89.8256 88.8961 89.9879 88.8961 90.1499 88.8869C91.8515 95.5004 95.7481 104.673 104.821 104.673H104.978C114.051 104.673 117.941 95.5004 119.65 88.8869C119.812 88.8961 119.974 88.8961 120.136 88.8869C121.3 88.8129 122.412 88.38 123.32 87.6476C124.228 86.9152 124.886 85.9194 125.205 84.7973C125.634 83.3888 125.977 81.8158 125.755 80.8721Z" fill="#E8FAFF"/>
<path d="M88.541 59.7373C88.541 59.7373 92.8308 48.7339 102.84 50.1209C112.85 51.508 113.93 57.1491 123.546 52.1014C123.546 52.1014 128.308 59.7158 122.116 64.2559C120.717 65.2621 119.079 65.8857 117.365 66.065C115.651 66.2444 113.92 65.9732 112.342 65.2783C110.617 64.5413 108.775 64.1129 106.901 64.0128C101.661 63.7483 99.9448 70.8408 88.541 59.7373Z" fill="#00984A"/>
<path d="M97.3365 53.5739C102.563 53.9528 106.517 57.0272 111.085 59.1506C116.412 61.6173 119.1 56.9414 121.402 53.0805C113.709 56.2622 112.036 51.4289 102.82 50.1205C100.94 49.8565 99.0231 50.05 97.2332 50.6848C95.4434 51.3196 93.8331 52.3769 92.5391 53.7669C94.126 53.5232 95.7352 53.4585 97.3365 53.5739V53.5739Z" fill="#006636"/>
<path d="M118.219 105.117C113.465 112.338 104.821 113.775 104.821 113.775C104.821 113.775 96.1768 112.346 91.4294 105.117C91.4294 105.117 86.3102 107.927 82.5137 108.921C82.5137 108.921 93.8817 155.129 104.814 155.129C115.746 155.129 127.114 108.921 127.114 108.921C123.331 107.913 118.219 105.117 118.219 105.117Z" fill="url(#paint0_linear)"/>
<g style="mix-blend-mode:multiply">
<path d="M118.219 105.117C113.465 112.338 104.821 113.775 104.821 113.775C104.821 113.775 96.1768 112.346 91.4294 105.117C91.4294 105.117 86.3102 107.927 82.5137 108.921C82.5137 108.921 93.8817 155.129 104.814 155.129C115.746 155.129 127.114 108.921 127.114 108.921C123.331 107.913 118.219 105.117 118.219 105.117Z" fill="#D9E1F3"/>
</g>
<path d="M106.529 123.004L110.562 120.28L107.916 113.688H101.732L99.0864 120.28L103.119 123.004L96.584 155.127L104.82 162.255L113.057 155.127L106.529 123.004Z" fill="#00984A"/>
<path d="M104.821 113.775L91.4298 105.117L87.1543 110.015L95.4837 123.399L104.821 113.775Z" fill="url(#paint1_linear)"/>
<path d="M104.822 113.775L118.214 105.117L122.489 110.015L114.167 123.399L104.822 113.775Z" fill="url(#paint2_linear)"/>
<path d="M84.7518 108.199C84.7518 108.199 62.9595 113.84 60.8789 114.255C60.8789 114.255 63.46 145.714 67.0277 157.804C70.5954 169.894 69.0081 208.567 64.6468 230.016H104.821V146.65C104.821 146.65 94.9401 136.09 84.7518 108.199Z" fill="url(#paint3_linear)"/>
<g style="mix-blend-mode:multiply">
<path d="M87.3969 229.987C87.3969 229.873 87.3254 229.758 87.304 229.644C86.7882 227.398 86.684 225.077 86.9965 222.795C85.9433 220.518 85.4225 218.031 85.4736 215.523C85.2663 211.948 90.8788 208.996 90.4427 205.607C90.0495 202.568 87.2754 199.887 85.731 197.399C83.7679 194.446 82.5262 191.074 82.1061 187.554C81.4341 180.325 84.1795 174.234 86.1386 167.47C87.9403 161.236 84.9946 159.562 81.0122 157.317C75.0208 153.936 75.0923 147.008 74.1556 145.535C71.5736 141.353 67.9235 137.935 63.5812 135.632L63.0879 135.375C64.1317 143.733 65.4902 152.577 67.0345 157.811C70.6094 169.908 69.015 208.574 64.6537 230.023L87.3969 229.987Z" fill="#CDD8EF"/>
</g>
<path d="M124.899 108.199C124.899 108.199 146.691 113.84 148.771 114.255C148.771 114.255 146.19 145.714 142.623 157.804C139.055 169.894 140.642 208.567 145.004 230.016H97.6152L100.475 156.045C110.53 141.148 118.732 125.081 124.899 108.199V108.199Z" fill="url(#paint4_linear)"/>
<path d="M125.096 108.023C125.096 108.023 146.917 113.673 149 114.088C149 114.088 146.416 145.594 142.843 157.703C139.271 169.811 140.86 208.542 145.227 230.023H105V146.532C105 146.532 114.894 135.956 125.096 108.023Z" fill="url(#paint5_linear)"/>
<g style="mix-blend-mode:multiply">
<path d="M142.622 157.803C143.881 153.513 145.01 146.885 145.954 140.043C144.889 141.073 129.102 146.478 128.566 159.769C128.273 167.005 132.198 172.41 129.996 179.788C128.051 186.223 126.635 184.478 122.517 189.355C120.584 191.688 119.439 194.574 119.245 197.598C119.051 200.622 119.818 203.631 121.438 206.192C124.112 210.16 123.525 216.402 121.752 220.842C121.619 221.797 121.379 222.735 121.037 223.637C120.136 225.897 118.649 227.927 117.92 229.965H145.039C140.635 208.573 139.054 169.9 142.622 157.803Z" fill="#CDD8EF"/>
</g>
<g style="mix-blend-mode:multiply">
<g style="mix-blend-mode:multiply">
<path d="M104.463 171.623C105.194 171.623 105.786 170.794 105.786 169.772C105.786 168.749 105.194 167.92 104.463 167.92C103.733 167.92 103.141 168.749 103.141 169.772C103.141 170.794 103.733 171.623 104.463 171.623Z" fill="#D9E1F3"/>
</g>
</g>
<g style="mix-blend-mode:multiply">
<g style="mix-blend-mode:multiply">
<path d="M104.463 189.848C105.194 189.848 105.786 189.019 105.786 187.996C105.786 186.974 105.194 186.145 104.463 186.145C103.733 186.145 103.141 186.974 103.141 187.996C103.141 189.019 103.733 189.848 104.463 189.848Z" fill="#D9E1F3"/>
</g>
</g>
<g style="mix-blend-mode:multiply">
<g style="mix-blend-mode:multiply">
<path d="M104.463 208.073C105.194 208.073 105.786 207.244 105.786 206.221C105.786 205.198 105.194 204.369 104.463 204.369C103.733 204.369 103.141 205.198 103.141 206.221C103.141 207.244 103.733 208.073 104.463 208.073Z" fill="#D9E1F3"/>
</g>
</g>
<g style="mix-blend-mode:multiply">
<g style="mix-blend-mode:multiply">
<path d="M104.463 226.297C105.194 226.297 105.786 225.468 105.786 224.446C105.786 223.423 105.194 222.594 104.463 222.594C103.733 222.594 103.141 223.423 103.141 224.446C103.141 225.468 103.733 226.297 104.463 226.297Z" fill="#D9E1F3"/>
</g>
</g>
<g style="mix-blend-mode:multiply">
<path d="M76.5938 110.307L78.3311 125.629L84.916 127.859L77.9665 134.108L103.362 160.105L103.405 149.745L82.1348 108.877L76.5938 110.307Z" fill="#D9E1F3"/>
</g>
<g style="mix-blend-mode:multiply">
<path d="M132.519 110.307L130.781 125.629L124.196 127.859L131.146 134.108L99.9875 167.919L99.5156 157.109L127.013 108.877L132.519 110.307Z" fill="#D9E1F3"/>
</g>
<path d="M84.7529 108.199L77.4316 110.087L81.0923 125.23L87.6772 127.461L80.7277 133.709L102.377 156.467L106.166 149.324L84.7529 108.199Z" fill="url(#paint6_linear)"/>
<path d="M124.783 108.199L132.097 110.087L128.443 125.23L121.858 127.461L128.808 133.709L99.9016 165.983L99.4727 156.467L124.783 108.199Z" fill="url(#paint7_linear)"/>
<path d="M122.367 207.293C122.367 207.293 126.872 198.999 129.445 197.612C132.019 196.225 139.362 205.376 139.362 205.376L135.494 212.583L122.367 207.293Z" fill="#E8FAFF"/>
<path d="M148.77 114.254C148.77 114.254 152.559 117.607 154.883 124.928C160.195 141.723 165 158.024 165 174.061C165 183.006 147.125 204.204 138.624 211.147L127.135 197.863C127.135 197.863 143.779 176.843 144.373 175.055C144.966 173.268 141.599 159.011 141.599 154.035C141.591 140.944 148.77 114.254 148.77 114.254Z" fill="url(#paint8_linear)"/>
<path d="M116.246 229.987H136.787L138.081 210.532L118.491 204.369L116.246 229.987Z" fill="url(#paint9_linear)"/>
<path style="mix-blend-mode:multiply" d="M136.93 217.696L137.595 217.803L137.667 216.674C133.899 215.594 120.665 211.991 117.826 211.848L117.598 214.443C119.65 215.258 132.519 217.103 136.93 217.696Z" fill="url(#paint10_linear)"/>
<g style="mix-blend-mode:multiply">
<path d="M137.609 217.66L138.081 210.532L118.491 204.369L116.246 229.987H136.787L137.595 217.796L137.609 217.66Z" fill="#008145"/>
</g>
<path d="M93.8743 229.987H73.326L72.0391 210.532L91.6293 204.369L93.8743 229.987Z" fill="url(#paint11_linear)"/>
<path style="mix-blend-mode:multiply" d="M73.1759 217.695L72.511 217.803L72.4609 216.666C76.2288 215.586 89.463 211.983 92.3014 211.84L92.4801 214.442C90.4782 215.257 77.6087 217.102 73.1759 217.695Z" fill="url(#paint12_linear)"/>
<g style="mix-blend-mode:multiply">
<path d="M72.5109 217.66L72.0391 210.532L91.6293 204.369L93.8743 229.987H73.326L72.5181 217.796L72.5109 217.66Z" fill="#008145"/>
</g>
<g style="mix-blend-mode:multiply">
<path d="M149.341 163.729C146.367 158.324 150.335 151.997 142.799 141.723C142.164 145.8 141.76 149.911 141.591 154.034C141.591 159.039 144.965 173.267 144.365 175.055C143.764 176.842 127.127 197.862 127.127 197.862L132.983 204.64C136.407 200.879 140.776 198.799 144.243 195.124C147.253 191.935 146.517 185.214 148.733 181.189C150.278 178.379 153.195 175.541 152.816 172.095C152.487 169.013 150.8 166.375 149.341 163.729Z" fill="#D9E1F3"/>
</g>
<path d="M74.5361 163.172L58.8711 205.212L91.3951 215.522L106.166 173.582L74.5361 163.172Z" fill="#006636"/>
<path d="M76.0367 191.163C74.5567 191.163 70.5886 190.655 68.0576 190.305C66.9137 190.148 63.2244 189.533 62.3379 189.383C61.1725 190.813 59.9427 192.186 58.763 193.587C58.4985 193.894 58.2268 194.187 57.9551 194.481C58.67 196.533 60.6791 200.865 60.6076 201.673C60.0714 207.665 61.7373 210.896 63.1529 212.233C64.3469 213.356 66.0128 213.134 65.4837 212.047C63.3889 207.994 63.7034 205.255 63.7034 205.255C64.4756 215.844 72.1044 215.651 69.4232 211.39C70.2128 212.35 71.1848 213.145 72.2831 213.728C74.664 214.807 76.1726 213.234 74.2707 211.411C70.4742 207.758 69.5877 205.062 69.5877 205.062C70.2412 206.06 70.9576 207.015 71.7326 207.922C73.7101 210.251 76.2465 212.039 79.1039 213.12C84.6807 215.208 84.1087 211.311 82.6788 210.489C79.9619 208.966 75.3932 206.442 74.4566 204.376C73.52 202.309 73.2412 199.128 73.0267 196.976C72.8122 194.824 74.714 194.538 79.0253 196.261C83.3366 197.984 87.6478 198.406 87.6478 196.261C87.6478 194.116 78.3032 191.163 76.0367 191.163Z" fill="#E8FAFF"/>
<path d="M60.8791 114.254C60.8791 114.254 37.8713 164.152 36.091 174.662C34.3107 185.172 59.2418 200.401 59.2418 200.401L67.0278 189.984C67.0278 189.984 59.0916 175.255 58.8771 172.26C58.6626 169.264 67.0278 157.803 67.0278 157.803C67.0278 157.803 62.2661 122.669 60.8791 114.254Z" fill="url(#paint13_linear)"/>
<g style="mix-blend-mode:multiply">
<path d="M67.0275 157.803C67.0275 157.803 65.5332 146.771 63.9746 135.596C63.2596 137.683 64.1533 148.88 56.8249 154.364C52.6494 157.481 57.9402 161.513 52.2633 168.063C44.942 176.499 53.1571 179.159 58.1619 185.987C59.9421 188.425 61.1075 192.386 62.7591 195.718L67.049 189.998C67.049 189.998 59.0913 175.255 58.8768 172.259C58.6623 169.264 67.0275 157.803 67.0275 157.803Z" fill="#D9E1F3"/>
</g>
<path d="M117.999 59.1502C117.999 59.1502 116.569 65.585 119.428 70.84C122.288 76.0951 118.828 78.2757 118.535 82.537C118.356 85.1466 116.59 89.2648 113.223 92.0747C111.464 87.3773 104.836 88.0351 104.836 88.0351C104.836 88.0351 98.201 87.3845 96.435 92.0818C93.0675 89.2648 91.3015 85.1466 91.1228 82.5441C90.8296 78.2543 87.3549 76.1094 90.2291 70.8472C93.1032 65.585 91.659 59.1574 91.659 59.1574C82.1785 56.3619 81.6994 66.1856 83.1151 70.647C83.9947 73.5058 84.5909 76.4442 84.8954 79.4197C86.0393 79.005 87.455 79.577 88.6418 82.5513C89.8287 85.5255 89.7357 92.7539 94.097 100.19C98.4584 107.625 104.822 106.732 104.822 106.732C104.822 106.732 111.185 107.625 115.546 100.19C119.908 92.7539 119.836 85.5112 121.001 82.537C122.167 79.5627 123.604 78.9621 124.748 79.4054C125.052 76.4299 125.649 73.4915 126.528 70.6327C127.944 66.1856 127.465 56.3619 117.999 59.1502ZM104.822 95.1348C103.267 95.1399 101.725 94.8663 100.267 94.3268C100.504 93.2948 101.083 92.3736 101.911 91.7137C102.739 91.0539 103.766 90.6946 104.825 90.6946C105.884 90.6946 106.911 91.0539 107.739 91.7137C108.567 92.3736 109.147 93.2948 109.383 94.3268C107.923 94.8671 106.378 95.1408 104.822 95.1348V95.1348Z" fill="#00984A"/>
</g>
<defs>
<linearGradient id="paint0_linear" x1="105.479" y1="113.99" x2="113.136" y2="172.918" gradientUnits="userSpaceOnUse">
<stop stop-color="#F6F9FF"/>
<stop offset="1" stop-color="#F6F8FF"/>
</linearGradient>
<linearGradient id="paint1_linear" x1="1558.46" y1="1600.2" x2="1631.96" y2="2146.74" gradientUnits="userSpaceOnUse">
<stop stop-color="#F6F9FF"/>
<stop offset="1" stop-color="#F6F8FF"/>
</linearGradient>
<linearGradient id="paint2_linear" x1="-2529.39" y1="1600.2" x2="-2602.89" y2="2146.74" gradientUnits="userSpaceOnUse">
<stop stop-color="#F6F9FF"/>
<stop offset="1" stop-color="#F6F8FF"/>
</linearGradient>
<linearGradient id="paint3_linear" x1="83.3004" y1="113.769" x2="82.4138" y2="228.886" gradientUnits="userSpaceOnUse">
<stop stop-color="#12EE4C"/>
<stop offset="1" stop-color="#00984A"/>
</linearGradient>
<linearGradient id="paint4_linear" x1="-5876.31" y1="10977.9" x2="-5516.71" y2="30586.2" gradientUnits="userSpaceOnUse">
<stop offset="0.192708" stop-color="#00984A"/>
<stop offset="1" stop-color="#12EE4C"/>
</linearGradient>
<linearGradient id="paint5_linear" x1="126.549" y1="113.601" x2="127.437" y2="228.892" gradientUnits="userSpaceOnUse">
<stop stop-color="#12EE4C"/>
<stop offset="1" stop-color="#00984A"/>
</linearGradient>
<linearGradient id="paint6_linear" x1="91.3736" y1="122.499" x2="95.9351" y2="199.837" gradientUnits="userSpaceOnUse">
<stop stop-color="#F6F8FF"/>
<stop offset="0.32" stop-color="#F1F6FF"/>
<stop offset="0.69" stop-color="#E4F2FF"/>
<stop offset="1" stop-color="#D2ECFF"/>
</linearGradient>
<linearGradient id="paint7_linear" x1="126.348" y1="107.835" x2="98.8292" y2="191.808" gradientUnits="userSpaceOnUse">
<stop stop-color="#F6F8FF"/>
<stop offset="0.42" stop-color="#F3F7FF"/>
<stop offset="0.68" stop-color="#EBF4FF"/>
<stop offset="0.89" stop-color="#DCEFFF"/>
<stop offset="1" stop-color="#D2ECFF"/>
</linearGradient>
<linearGradient id="paint8_linear" x1="146.067" y1="114.254" x2="146.067" y2="211.147" gradientUnits="userSpaceOnUse">
<stop stop-color="#12EE4C"/>
<stop offset="1" stop-color="#00984A"/>
</linearGradient>
<linearGradient id="paint9_linear" x1="127.278" y1="205.606" x2="127.085" y2="229.808" gradientUnits="userSpaceOnUse">
<stop stop-color="#F6F8FF"/>
<stop offset="1" stop-color="#D2ECFF"/>
</linearGradient>
<linearGradient id="paint10_linear" x1="2692.08" y1="1509" x2="2691.59" y2="1729.37" gradientUnits="userSpaceOnUse">
<stop stop-color="#F6F8FF"/>
<stop offset="1" stop-color="#D2ECFF"/>
</linearGradient>
<linearGradient id="paint11_linear" x1="-3696.76" y1="5779.75" x2="-3688.95" y2="6646.88" gradientUnits="userSpaceOnUse">
<stop stop-color="#F6F8FF"/>
<stop offset="1" stop-color="#D2ECFF"/>
</linearGradient>
<linearGradient id="paint12_linear" x1="-3387.71" y1="1510.55" x2="-3387.19" y2="1731.19" gradientUnits="userSpaceOnUse">
<stop stop-color="#F6F8FF"/>
<stop offset="1" stop-color="#D2ECFF"/>
</linearGradient>
<linearGradient id="paint13_linear" x1="51.5139" y1="114.254" x2="51.5139" y2="200.401" gradientUnits="userSpaceOnUse">
<stop stop-color="#12EE4C"/>
<stop offset="1" stop-color="#00984A"/>
</linearGradient>
<clipPath id="clip0">
<rect width="230" height="230" fill="white"/>
</clipPath>
</defs>
</svg>
